<?xml version="1.0" encoding="utf-8"?>
<!-- Generator: Adobe Illustrator 16.0.0, SVG Export Plug-In . SVG Version: 6.00 Build 0)  -->
<!DOCTYPE svg PUBLIC "-//W3C//DTD SVG 1.1//EN" "http://www.w3.org/Graphics/SVG/1.1/DTD/svg11.dtd">
<svg version="1.1" id="Layer_1" xmlns="http://www.w3.org/2000/svg" xmlns:xlink="http://www.w3.org/1999/xlink" x="0px" y="0px"
	 width="500px" height="500px" viewBox="0 0 500 500" enable-background="new 0 0 500 500" xml:space="preserve">
<g>
	<g>
		<path fill="#333333" d="M230.078,251.103c0-0.776,0-1.552,0-2.328c0.032-0.279,0.064-0.558,0.095-0.837
			c0.475-4.274,2.107-8.044,4.988-11.24c3.058-3.394,6.848-5.513,11.356-6.311c0.747-0.132,1.504-0.208,2.257-0.309
			c0.775,0,1.551,0,2.328,0c0.1,0.022,0.198,0.057,0.299,0.064c3.106,0.219,6.013,1.108,8.665,2.733
			c5.146,3.152,8.312,7.7,9.424,13.647c0.139,0.744,0.208,1.502,0.309,2.253c0,0.775,0,1.551,0,2.328
			c-0.031,0.278-0.063,0.558-0.095,0.837c-0.475,4.273-2.108,8.044-4.988,11.24c-3.058,3.394-6.848,5.512-11.356,6.311
			c-0.747,0.133-1.505,0.207-2.257,0.309c-0.776,0-1.552,0-2.328,0c-0.1-0.021-0.199-0.057-0.3-0.063
			c-3.106-0.219-6.013-1.108-8.665-2.733c-5.146-3.152-8.31-7.7-9.423-13.646C230.248,252.611,230.179,251.854,230.078,251.103z
			 M249.927,238.638c-2.21,0-4.42-0.004-6.631,0.004c-0.386,0.001-0.779,0.021-1.155,0.1c-2.12,0.441-3.497,2.19-3.5,4.452
			c-0.007,4.498-0.004,8.997,0.002,13.495c0,0.347,0.025,0.701,0.096,1.039c0.449,2.141,2.196,3.51,4.483,3.513
			c4.472,0.005,8.944,0.004,13.417-0.003c0.372-0.001,0.753-0.026,1.116-0.104c2.118-0.452,3.479-2.197,3.481-4.468
			c0.006-4.485,0.007-8.97-0.005-13.456c-0.002-0.46-0.056-0.934-0.175-1.377c-0.523-1.946-2.235-3.186-4.382-3.193
			C254.426,238.632,252.177,238.638,249.927,238.638z"/>
		<path fill-rule="evenodd" clip-rule="evenodd" fill="#FFFFFF" d="M248.775,230.078c-0.753,0.102-1.51,0.177-2.257,0.309
			c-4.509,0.798-8.298,2.917-11.356,6.311c-2.881,3.196-4.513,6.966-4.988,11.24c-0.031,0.279-0.063,0.558-0.095,0.837
			c0-6.232,0-12.465,0-18.697C236.31,230.078,242.542,230.078,248.775,230.078z"/>
		<path fill-rule="evenodd" clip-rule="evenodd" fill="#FFFFFF" d="M269.799,248.775c-0.101-0.751-0.17-1.509-0.309-2.253
			c-1.112-5.947-4.277-10.495-9.424-13.647c-2.652-1.625-5.559-2.514-8.665-2.733c-0.101-0.007-0.199-0.042-0.299-0.064
			c6.232,0,12.465,0,18.696,0C269.799,236.31,269.799,242.542,269.799,248.775z"/>
		<path fill-rule="evenodd" clip-rule="evenodd" fill="#FFFFFF" d="M230.078,251.103c0.101,0.751,0.17,1.509,0.309,2.253
			c1.113,5.946,4.277,10.494,9.423,13.646c2.652,1.625,5.559,2.515,8.665,2.733c0.101,0.007,0.2,0.042,0.3,0.063
			c-6.232,0-12.465,0-18.697,0C230.078,263.567,230.078,257.335,230.078,251.103z"/>
		<path fill-rule="evenodd" clip-rule="evenodd" fill="#FFFFFF" d="M251.103,269.799c0.752-0.102,1.51-0.176,2.257-0.309
			c4.509-0.799,8.299-2.917,11.356-6.311c2.88-3.196,4.514-6.967,4.988-11.24c0.031-0.279,0.063-0.559,0.095-0.837
			c0,6.232,0,12.465,0,18.696C263.567,269.799,257.335,269.799,251.103,269.799z"/>
		<path fill-rule="evenodd" clip-rule="evenodd" fill="#FFFFFF" d="M249.927,238.638c2.25,0,4.499-0.006,6.748,0.002
			c2.146,0.007,3.858,1.247,4.382,3.193c0.119,0.443,0.173,0.917,0.175,1.377c0.012,4.485,0.011,8.97,0.005,13.456
			c-0.002,2.271-1.363,4.016-3.481,4.468c-0.363,0.077-0.744,0.103-1.116,0.104c-4.473,0.007-8.945,0.008-13.417,0.003
			c-2.287-0.003-4.034-1.372-4.483-3.513c-0.071-0.338-0.096-0.692-0.096-1.039c-0.006-4.498-0.009-8.997-0.002-13.495
			c0.003-2.261,1.38-4.01,3.5-4.452c0.376-0.078,0.77-0.098,1.155-0.1C245.507,238.634,247.717,238.638,249.927,238.638z
			 M244.176,247.643c-1.113,0-2.206,0-3.328,0c0,0.154,0,0.282,0,0.409c0,2.857-0.002,5.715,0,8.572
			c0.001,1.54,0.862,2.401,2.4,2.401c4.461,0.002,8.922,0.002,13.382,0c1.535,0,2.394-0.865,2.395-2.407
			c0.002-2.857,0.001-5.715,0-8.573c0-0.136-0.012-0.272-0.018-0.417c-1.127,0-2.211,0-3.297,0c0.946,3.198,0.188,5.813-2.677,7.635
			c-2.034,1.293-4.784,1.103-6.751-0.354C244.05,253.255,243.36,250.892,244.176,247.643z M249.9,253.905
			c2.167,0.021,3.985-1.744,4.004-3.889c0.021-2.23-1.724-4.026-3.926-4.045c-2.208-0.019-3.987,1.744-4.006,3.967
			C245.954,252.087,247.733,253.884,249.9,253.905z M258.602,245.065c0-1.291,0-2.537,0-3.794c-1.27,0-2.517,0-3.765,0
			c0,1.28,0,2.536,0,3.794C256.106,245.065,257.333,245.065,258.602,245.065z"/>
		<path fill-rule="evenodd" clip-rule="evenodd" fill="#333333" d="M244.176,247.643c-0.816,3.249-0.126,5.612,2.106,7.266
			c1.968,1.457,4.717,1.647,6.751,0.354c2.865-1.821,3.623-4.437,2.677-7.635c1.086,0,2.17,0,3.297,0
			c0.006,0.146,0.018,0.281,0.018,0.417c0.001,2.858,0.002,5.715,0,8.573c-0.001,1.542-0.859,2.407-2.395,2.407
			c-4.46,0.002-8.921,0.002-13.382,0c-1.538,0-2.399-0.861-2.4-2.401c-0.002-2.857,0-5.715,0-8.572c0-0.127,0-0.255,0-0.409
			C241.97,247.643,243.063,247.643,244.176,247.643z"/>
		<path fill-rule="evenodd" clip-rule="evenodd" fill="#333333" d="M249.9,253.905c-2.167-0.021-3.946-1.818-3.928-3.967
			c0.019-2.223,1.798-3.985,4.006-3.967c2.203,0.019,3.947,1.815,3.926,4.045C253.885,252.161,252.066,253.927,249.9,253.905z"/>
		<path fill-rule="evenodd" clip-rule="evenodd" fill="#333333" d="M258.602,245.065c-1.269,0-2.495,0-3.765,0
			c0-1.258,0-2.514,0-3.794c1.248,0,2.495,0,3.765,0C258.602,242.528,258.602,243.775,258.602,245.065z"/>
	</g>
</g>
</svg>
